<svg width="32" height="32" viewBox="0 0 32 32" fill="none" xmlns="http://www.w3.org/2000/svg">
<path d="M1 15.9985V21.173C1 25.4461 2.047 27.1799 3.409 28.5882C4.819 29.9516 6.556 31 10.828 31H21.172C25.444 31 27.181 29.9501 28.591 28.5882C29.953 27.1799 31 25.4476 31 21.173V10.827C31 6.55394 29.953 4.81862 28.591 3.41026C27.181 2.0499 25.444 1 21.172 1H10.828C6.556 1 4.819 2.0484 3.409 3.41026C2.047 4.82012 1 6.55394 1 10.827V15.9985Z" stroke="white" stroke-width="2" stroke-linecap="round" stroke-linejoin="round"/>
<path d="M7.81757 15.9999H24.1826" stroke="white" stroke-width="2" stroke-linecap="round" stroke-linejoin="round"/>
<path d="M16.0045 7.81689V24.1803" stroke="white" stroke-width="2" stroke-linecap="round" stroke-linejoin="round"/>
</svg>
