<svg width="26" height="26" viewBox="0 0 26 26" fill="none" xmlns="http://www.w3.org/2000/svg">
<path d="M14.9268 20.5067C14.7655 20.5073 14.6062 20.4717 14.4605 20.4026C14.3148 20.3335 14.1865 20.2326 14.0849 20.1074L8.87187 13.6316C8.71313 13.4384 8.62634 13.1962 8.62634 12.9462C8.62634 12.6962 8.71313 12.454 8.87187 12.2609L14.2684 5.78504C14.4516 5.56463 14.7148 5.42602 15.0002 5.39971C15.2856 5.3734 15.5698 5.46153 15.7902 5.64473C16.0106 5.82793 16.1492 6.09119 16.1755 6.37658C16.2018 6.66198 16.1137 6.94614 15.9305 7.16655L11.106 12.9516L15.7686 18.7367C15.9006 18.8951 15.9844 19.088 16.0102 19.2926C16.036 19.4972 16.0026 19.7049 15.914 19.8911C15.8255 20.0773 15.6854 20.2342 15.5105 20.3433C15.3355 20.4524 15.1329 20.5091 14.9268 20.5067Z" fill="#ffffff"/>
</svg>
