<svg width="26" height="26" viewBox="0 0 26 26" fill="none" xmlns="http://www.w3.org/2000/svg">
<path d="M10.6407 19.425C10.4928 19.4245 10.3465 19.3936 10.2109 19.3342C10.0754 19.2748 9.95357 19.1882 9.85295 19.0797L4.6082 13.5004C4.41214 13.2914 4.30711 13.0132 4.31622 12.7268C4.32533 12.4404 4.44782 12.1694 4.65676 11.9734C4.86569 11.7773 5.14395 11.6723 5.43033 11.6814C5.7167 11.6905 5.98772 11.813 6.18378 12.0219L10.6299 16.7595L19.7057 6.83113C19.7978 6.71643 19.9124 6.62178 20.0424 6.55299C20.1724 6.48419 20.3152 6.44269 20.4618 6.43106C20.6084 6.41942 20.7559 6.43788 20.8951 6.48531C21.0344 6.53274 21.1624 6.60813 21.2715 6.70686C21.3805 6.80558 21.4682 6.92556 21.5292 7.05942C21.5902 7.19327 21.6232 7.33818 21.6261 7.48525C21.6291 7.63232 21.6019 7.77843 21.5463 7.91462C21.4907 8.05081 21.4079 8.1742 21.3029 8.27721L11.4393 19.0689C11.3397 19.1793 11.2182 19.268 11.0826 19.3293C10.9471 19.3906 10.8003 19.4232 10.6515 19.425H10.6407Z" fill="#7E7656"/>
</svg>
