<svg width="27" height="27" viewBox="0 0 27 27" fill="none" xmlns="http://www.w3.org/2000/svg">
<path d="M15.9165 13.5691L23.0762 6.42502C23.3898 6.11144 23.5659 5.68614 23.5659 5.24266C23.5659 4.79919 23.3898 4.37389 23.0762 4.06031C22.7627 3.74672 22.3375 3.57056 21.894 3.57056C21.4506 3.57056 21.0254 3.74672 20.7119 4.06031L13.5688 11.2211L6.42566 4.06031C6.11212 3.74672 5.68688 3.57056 5.24347 3.57056C4.80006 3.57056 4.37481 3.74672 4.06128 4.06031C3.74774 4.37389 3.5716 4.79919 3.5716 5.24266C3.5716 5.68614 3.74774 6.11144 4.06128 6.42502L11.221 13.5691L4.06128 20.7132C3.90521 20.8681 3.78134 21.0522 3.69681 21.2552C3.61228 21.4581 3.56876 21.6758 3.56876 21.8956C3.56876 22.1154 3.61228 22.3331 3.69681 22.536C3.78134 22.739 3.90521 22.9232 4.06128 23.078C4.21607 23.2341 4.40022 23.3579 4.60313 23.4425C4.80603 23.527 5.02366 23.5706 5.24347 23.5706C5.46328 23.5706 5.68091 23.527 5.88381 23.4425C6.08671 23.3579 6.27087 23.2341 6.42566 23.078L13.5688 15.9172L20.7119 23.078C20.8666 23.2341 21.0508 23.3579 21.2537 23.4425C21.4566 23.527 21.6742 23.5706 21.894 23.5706C22.1139 23.5706 22.3315 23.527 22.5344 23.4425C22.7373 23.3579 22.9214 23.2341 23.0762 23.078C23.2323 22.9232 23.3562 22.739 23.4407 22.536C23.5252 22.3331 23.5688 22.1154 23.5688 21.8956C23.5688 21.6758 23.5252 21.4581 23.4407 21.2552C23.3562 21.0522 23.2323 20.8681 23.0762 20.7132L15.9165 13.5691Z" fill="black"/>
</svg>
