<svg width="25" height="25" viewBox="0 0 25 25" fill="none" xmlns="http://www.w3.org/2000/svg">
<path d="M20.7136 5.94228C18.9173 4.29622 16.5466 3.27231 14.0101 3.04708C11.4735 2.82185 8.93015 3.40942 6.81843 4.70848C4.70672 6.00755 3.15898 7.9367 2.44207 10.1634C1.72515 12.39 1.88398 14.7746 2.89117 16.9061C2.99614 17.1042 3.03059 17.3272 2.9897 17.544L2.02632 21.76C1.98921 21.9217 1.99679 22.0892 2.04838 22.2475C2.09997 22.4058 2.19396 22.55 2.3219 22.6671C2.42678 22.7619 2.55166 22.8363 2.68901 22.886C2.82635 22.9357 2.97333 22.9595 3.12106 22.9561H3.34001L8.02551 22.0989C8.26365 22.0729 8.50514 22.1038 8.72615 22.1886C11.0673 23.1056 13.6864 23.2502 16.1321 22.5975C18.5777 21.9448 20.6966 20.5357 22.1235 18.6131C23.5503 16.6904 24.1957 14.3748 23.9483 12.0654C23.7009 9.75605 22.5763 7.5976 20.7683 5.96221L20.7136 5.94228ZM21.6222 14.2748C21.4082 15.4648 20.9005 16.5952 20.1373 17.5808C19.3741 18.5663 18.3753 19.3815 17.216 19.9648C16.0568 20.5482 14.7674 20.8846 13.4447 20.9486C12.1221 21.0127 10.8007 20.8028 9.58005 20.3348C9.14712 20.1671 8.68207 20.079 8.21162 20.0756C8.00611 20.0769 7.80107 20.0936 7.59856 20.1254L4.51139 20.6936L5.13539 17.8829C5.25967 17.2741 5.17956 16.6454 4.9055 16.0788C4.3914 14.9675 4.16086 13.7644 4.23124 12.5602C4.30161 11.356 4.67107 10.182 5.3118 9.12662C5.95254 8.0712 6.84785 7.16185 7.93038 6.467C9.0129 5.77214 10.2544 5.30988 11.5615 5.11501C12.9335 4.91 14.3395 5.00535 15.663 5.39315C16.9865 5.78096 18.1896 6.45009 19.1727 7.34518C20.1558 8.24028 20.8908 9.33563 21.3167 10.5406C21.7427 11.7456 21.8474 13.0256 21.6222 14.2748Z" fill="black"/>
</svg>
