<svg width="25" height="25" viewBox="0 0 25 25" fill="none" xmlns="http://www.w3.org/2000/svg">
<path d="M12.6998 13.9476C13.2769 13.9476 13.7447 13.5459 13.7447 13.0505C13.7447 12.5551 13.2769 12.1535 12.6998 12.1535C12.1226 12.1535 11.6548 12.5551 11.6548 13.0505C11.6548 13.5459 12.1226 13.9476 12.6998 13.9476Z" fill="black"/>
<path d="M16.8797 13.9476C17.4569 13.9476 17.9247 13.5459 17.9247 13.0505C17.9247 12.5551 17.4569 12.1535 16.8797 12.1535C16.3026 12.1535 15.8347 12.5551 15.8347 13.0505C15.8347 13.5459 16.3026 13.9476 16.8797 13.9476Z" fill="black"/>
<path d="M8.51979 13.9476C9.09692 13.9476 9.56477 13.5459 9.56477 13.0505C9.56477 13.0505 9.09692 12.1535 8.51979 12.1535C7.94266 12.1535 7.47481 12.5551 7.47481 13.0505C7.47481 13.5459 7.94266 13.9476 8.51979 13.9476Z" fill="black"/>
<path d="M20.0879 6.70847C18.3733 5.22702 16.1103 4.3055 13.6891 4.1028C11.2678 3.90009 8.84006 4.4289 6.82433 5.59806C4.8086 6.76722 3.33122 8.50345 2.64689 10.5074C1.96256 12.5114 2.11417 14.6576 3.07558 16.5759C3.17578 16.7542 3.20866 16.9549 3.16962 17.15L2.25004 20.9445C2.21461 21.0899 2.22185 21.2407 2.27109 21.3832C2.32034 21.5257 2.41006 21.6554 2.53219 21.7608C2.6323 21.8461 2.7515 21.9131 2.8826 21.9578C3.01371 22.0025 3.154 22.024 3.29502 22.0209H3.50402L7.97654 21.2495C8.20386 21.226 8.43437 21.2538 8.64533 21.3302C10.88 22.1555 13.3801 22.2856 15.7146 21.6982C18.0491 21.1107 20.0717 19.8425 21.4337 18.1122C22.7957 16.3818 23.4117 14.2978 23.1756 12.2193C22.9394 10.1409 21.8659 8.19826 20.1401 6.72642L20.0879 6.70847ZM20.9552 14.2077C20.7509 15.2788 20.2663 16.2961 19.5378 17.1831C18.8092 18.0701 17.8559 18.8038 16.7493 19.3288C15.6428 19.8538 14.412 20.1565 13.1494 20.2142C11.8869 20.2719 10.6256 20.083 9.46042 19.6617C9.04717 19.5108 8.60325 19.4316 8.15419 19.4285C7.95802 19.4297 7.7623 19.4447 7.569 19.4733L4.62215 19.9846L5.21779 17.455C5.33642 16.9071 5.25995 16.3413 4.99834 15.8314C4.50761 14.8311 4.28755 13.7484 4.35473 12.6646C4.42191 11.5808 4.77457 10.5242 5.38618 9.57438C5.99779 8.62451 6.85241 7.80609 7.88573 7.18072C8.91905 6.55535 10.1041 6.13932 11.3518 5.96393C12.6615 5.77943 14.0035 5.86523 15.2668 6.21426C16.5302 6.56329 17.6786 7.1655 18.617 7.97109C19.5555 8.77668 20.257 9.76249 20.6636 10.847C21.0702 11.9315 21.1702 13.0835 20.9552 14.2077V14.2077Z" fill="black"/>
</svg>
