<svg width="63" height="63" viewBox="0 0 63 63" fill="none" xmlns="http://www.w3.org/2000/svg">
<path d="M31.3563 28.7433C33.4235 28.7433 35.4443 28.1303 37.1631 26.9818C38.882 25.8333 40.2216 24.2009 41.0127 22.291C41.8038 20.3812 42.0108 18.2796 41.6075 16.2521C41.2042 14.2246 40.2088 12.3622 38.747 10.9004C37.2853 9.43868 35.4229 8.44322 33.3954 8.03992C31.3678 7.63662 29.2663 7.84361 27.3564 8.6347C25.4465 9.4258 23.8141 10.7655 22.6656 12.4843C21.5172 14.2032 20.9042 16.224 20.9042 18.2912C20.9042 21.0633 22.0054 23.7218 23.9655 25.6819C25.9257 27.6421 28.5842 28.7433 31.3563 28.7433Z" fill="#231F20"/>
<path d="M47.0344 54.8735C47.7274 54.8735 48.3921 54.5982 48.8821 54.1082C49.3721 53.6182 49.6474 52.9535 49.6474 52.2605C49.6474 47.4094 47.7203 42.757 44.2901 39.3267C40.8598 35.8964 36.2074 33.9693 31.3563 33.9693C26.5051 33.9693 21.8527 35.8964 18.4224 39.3267C14.9922 42.757 13.0651 47.4094 13.0651 52.2605C13.0651 52.9535 13.3404 53.6182 13.8304 54.1082C14.3205 54.5982 14.9851 54.8735 15.6781 54.8735H47.0344Z" fill="#231F20"/>
</svg>
