<svg width="25" height="25" viewBox="0 0 25 25" fill="none" xmlns="http://www.w3.org/2000/svg">
<path d="M13 23C12.8553 23.0009 12.7118 22.9712 12.5778 22.9127C12.4438 22.8541 12.3219 22.7678 12.2191 22.6588L3.67325 13.5056C2.60129 12.347 2 10.7827 2 9.15255C2 7.52243 2.60129 5.95814 3.67325 4.79949C4.75359 3.64712 6.21702 3 7.7427 3C9.26838 3 10.7318 3.64712 11.8122 4.79949L13 6.07012L14.1878 4.79949C15.2682 3.64712 16.7316 3 18.2573 3C19.783 3 21.2464 3.64712 22.3268 4.79949C23.3987 5.95814 24 7.52243 24 9.15255C24 10.7827 23.3987 12.347 22.3268 13.5056L13.7809 22.6588C13.6781 22.7678 13.5562 22.8541 13.4222 22.9127C13.2882 22.9712 13.1447 23.0009 13 23ZM7.7427 5.35245C7.27711 5.35019 6.81572 5.44678 6.38527 5.63662C5.95482 5.82645 5.56386 6.10576 5.23504 6.45836C4.57079 7.17264 4.19792 8.13917 4.19792 9.14667C4.19792 10.1542 4.57079 11.1207 5.23504 11.835L13 20.1528L20.765 11.835C21.4292 11.1207 21.8021 10.1542 21.8021 9.14667C21.8021 8.13917 21.4292 7.17264 20.765 6.45836C20.0871 5.77329 19.1899 5.39162 18.2573 5.39162C17.3247 5.39162 16.4275 5.77329 15.7496 6.45836L13.7809 8.57606C13.6786 8.68634 13.557 8.77386 13.423 8.83359C13.2889 8.89332 13.1452 8.92407 13 8.92407C12.8548 8.92407 12.711 8.89332 12.577 8.83359C12.443 8.77386 12.3213 8.68634 12.2191 8.57606L10.2504 6.45836C9.92154 6.10576 9.53058 5.82645 9.10013 5.63662C8.66968 5.44678 8.2083 5.35019 7.7427 5.35245Z" fill="black"/>
</svg>
