<svg width="25" height="25" viewBox="0 0 25 25" fill="none" xmlns="http://www.w3.org/2000/svg">
<path d="M12.4181 21.7078C12.281 21.7086 12.1451 21.6824 12.0182 21.6305C11.8912 21.5787 11.7758 21.5023 11.6785 21.4058L3.58473 13.3016C2.56948 12.2757 2 10.8907 2 9.44743C2 8.00413 2.56948 6.61912 3.58473 5.59326C4.60791 4.57296 5.99393 4 7.43889 4C8.88386 4 10.2699 4.57296 11.2931 5.59326L12.4181 6.71826L13.5431 5.59326C14.5662 4.57296 15.9523 4 17.3972 4C18.8422 4 20.2282 4.57296 21.2514 5.59326C22.2666 6.61912 22.8361 8.00413 22.8361 9.44743C22.8361 10.8907 22.2666 12.2757 21.2514 13.3016L13.1576 21.4058C13.0603 21.5023 12.9449 21.5787 12.818 21.6305C12.691 21.6824 12.5552 21.7086 12.4181 21.7078ZM7.43889 6.08284C6.99793 6.08085 6.56095 6.16636 6.15328 6.33444C5.7456 6.50252 5.37532 6.74982 5.06389 7.06201C4.43479 7.69443 4.08164 8.55018 4.08164 9.44222C4.08164 10.3343 4.43479 11.19 5.06389 11.8224L12.4181 19.187L19.7722 11.8224C20.4013 11.19 20.7545 10.3343 20.7545 9.44222C20.7545 8.55018 20.4013 7.69443 19.7722 7.06201C19.1302 6.45546 18.2805 6.11753 17.3972 6.11753C16.514 6.11753 15.6642 6.45546 15.0222 7.06201L13.1576 8.93701C13.0608 9.03464 12.9456 9.11214 12.8187 9.16502C12.6917 9.21791 12.5556 9.24513 12.4181 9.24513C12.2805 9.24513 12.1444 9.21791 12.0175 9.16502C11.8905 9.11214 11.7753 9.03464 11.6785 8.93701L9.81389 7.06201C9.50246 6.74982 9.13219 6.50252 8.72451 6.33444C8.31683 6.16636 7.87985 6.08085 7.43889 6.08284Z" fill="black"/>
</svg>
