<svg width="25" height="25" viewBox="0 0 25 25" fill="none" xmlns="http://www.w3.org/2000/svg">
<path d="M12.5 21.875C12.3629 21.8758 12.227 21.8495 12.1001 21.7977C11.9732 21.7458 11.8577 21.6694 11.7604 21.5729L3.66667 13.4687C2.65142 12.4429 2.08194 11.0579 2.08194 9.61457C2.08194 8.17127 2.65142 6.78626 3.66667 5.7604C4.68985 4.7401 6.07586 4.16714 7.52083 4.16714C8.9658 4.16714 10.3518 4.7401 11.375 5.7604L12.5 6.8854L13.625 5.7604C14.6482 4.7401 16.0342 4.16714 17.4792 4.16714C18.9241 4.16714 20.3101 4.7401 21.3333 5.7604C22.3486 6.78626 22.9181 8.17127 22.9181 9.61457C22.9181 11.0579 22.3486 12.4429 21.3333 13.4687L13.2396 21.5729C13.1422 21.6694 13.0268 21.7458 12.8999 21.7977C12.773 21.8495 12.6371 21.8758 12.5 21.875Z" fill="#FF4646"/>
</svg>
