<svg width="36" height="35" viewBox="0 0 36 35" fill="none" xmlns="http://www.w3.org/2000/svg">
<path d="M30.431 14.8458L18.9411 3.35413C18.8026 3.21745 18.6378 3.10895 18.4562 3.03492C18.2746 2.96088 18.0798 2.92276 17.8831 2.92276C17.6863 2.92276 17.4915 2.96088 17.3099 3.03492C17.1283 3.10895 16.9635 3.21745 16.825 3.35413L5.33512 14.8604C5.05709 15.1346 4.83751 15.4602 4.68913 15.8182C4.54075 16.1762 4.46653 16.5595 4.47077 16.9458V29.1666C4.46961 29.9132 4.76103 30.6317 5.28501 31.1743C5.80898 31.7169 6.52562 32.0422 7.28735 32.0833H28.4788C29.2405 32.0422 29.9571 31.7169 30.4811 31.1743C31.0051 30.6317 31.2965 29.9132 31.2953 29.1666V16.9458C31.2965 16.1626 30.9866 15.4096 30.431 14.8458ZM14.9025 29.1666V20.4166H20.8636V29.1666H14.9025ZM28.3148 29.1666H23.8441V18.9583C23.8441 18.5715 23.6871 18.2006 23.4076 17.9271C23.1281 17.6536 22.7491 17.5 22.3538 17.5H13.4123C13.0171 17.5 12.638 17.6536 12.3585 17.9271C12.079 18.2006 11.922 18.5715 11.922 18.9583V29.1666H7.45128V16.8875L17.8831 6.46038L28.3148 16.9458V29.1666Z" fill="white"/>
</svg>
