<svg width="25" height="25" viewBox="0 0 25 25" fill="none" xmlns="http://www.w3.org/2000/svg">
<path d="M20.0728 4.875C19.835 4.70366 19.5602 4.59078 19.2706 4.54554C18.981 4.50029 18.6848 4.52395 18.4061 4.61458C17.6709 4.82134 16.9093 4.9196 16.1457 4.90625C15.0171 4.84499 13.9106 4.56924 12.8853 4.09375C11.6186 3.50795 10.2485 3.1787 8.85402 3.125C5.84361 3.125 4.68736 4.16667 4.47902 4.3125C4.37934 4.4102 4.30032 4.52694 4.24663 4.65578C4.19295 4.78461 4.16571 4.92293 4.16652 5.0625V20.8333C4.16652 21.1096 4.27627 21.3746 4.47162 21.5699C4.66697 21.7653 4.93192 21.875 5.20819 21.875C5.48446 21.875 5.74941 21.7653 5.94476 21.5699C6.14011 21.3746 6.24986 21.1096 6.24986 20.8333V16.3542C7.07988 16.0364 7.96597 15.8911 8.85402 15.9271C9.98257 15.9883 11.0891 16.2641 12.1144 16.7396C13.3811 17.3254 14.7512 17.6546 16.1457 17.7083C17.4014 17.7558 18.6506 17.5059 19.7915 16.9792C20.099 16.8347 20.3597 16.6067 20.5439 16.3213C20.7281 16.0358 20.8283 15.7043 20.8332 15.3646V6.36458C20.8328 6.07393 20.7637 5.78748 20.6316 5.52861C20.4994 5.26974 20.308 5.04578 20.0728 4.875Z" fill="#000000"/>
</svg>
