<svg width="35" height="35" viewBox="0 0 35 35" fill="none" xmlns="http://www.w3.org/2000/svg">
<path d="M32.0833 17.5C32.0833 15.5849 31.7061 13.6885 30.9732 11.9192C30.2404 10.1499 29.1661 8.5422 27.812 7.18802C26.4578 5.83383 24.8501 4.75963 23.0808 4.02675C21.3115 3.29387 19.4151 2.91666 17.5 2.91666C13.6322 2.91666 9.92292 4.45311 7.18802 7.18802C4.45311 9.92292 2.91666 13.6322 2.91666 17.5C2.91666 21.3677 4.45311 25.0771 7.18802 27.812C9.92292 30.5469 13.6322 32.0833 17.5 32.0833C21.3677 32.0833 25.0771 30.5469 27.812 27.812C30.5469 25.0771 32.0833 21.3677 32.0833 17.5ZM29.0646 16.0417H24.7917C24.5511 12.6119 23.376 9.31342 21.3937 6.50416C23.4303 7.22744 25.2258 8.50218 26.5803 10.1862C27.9347 11.8703 28.7948 13.8974 29.0646 16.0417ZM13.2417 18.9583H21.875C21.5018 22.5613 19.9661 25.9449 17.5 28.5979C15.0355 25.9559 13.5351 22.5594 13.2417 18.9583ZM13.2417 16.0417C13.5813 12.4568 15.0756 9.07916 17.5 6.41666C19.986 9.05059 21.5252 12.4367 21.875 16.0417H13.2417ZM13.7667 6.46041C11.7739 9.28523 10.5799 12.5952 10.3104 16.0417H5.93541C6.21089 13.8709 7.09129 11.8214 8.47607 10.1272C9.86084 8.43298 11.6942 7.16235 13.7667 6.46041ZM5.93541 18.9583H10.3104C10.5506 22.4018 11.7365 25.7123 13.7375 28.525C11.6725 27.8196 9.84664 26.5492 8.46746 24.8581C7.08829 23.167 6.21105 21.123 5.93541 18.9583ZM21.3208 28.5104C23.3164 25.6968 24.5155 22.3967 24.7917 18.9583H29.0937C28.818 21.117 27.9439 23.1555 26.5703 24.8435C25.1967 26.5315 23.3784 27.8016 21.3208 28.5104Z" fill="white"/>
</svg>
