<svg width="18" height="18" viewBox="0 0 18 18" fill="none" xmlns="http://www.w3.org/2000/svg">
<path d="M8.90903 10.3939C9.72909 10.3939 10.3939 9.72909 10.3939 8.90903C10.3939 8.08898 9.72909 7.42419 8.90903 7.42419C8.08898 7.42419 7.42419 8.08898 7.42419 8.90903C7.42419 9.72909 8.08898 10.3939 8.90903 10.3939Z" fill="#231F20"/>
<path d="M8.90903 5.19697C9.72909 5.19697 10.3939 4.53219 10.3939 3.71213C10.3939 2.89208 9.72909 2.22729 8.90903 2.22729C8.08898 2.22729 7.42419 2.89208 7.42419 3.71213C7.42419 4.53219 8.08898 5.19697 8.90903 5.19697Z" fill="#231F20"/>
<path d="M8.90903 15.5908C9.72909 15.5908 10.3939 14.926 10.3939 14.106C10.3939 13.2859 9.72909 12.6212 8.90903 12.6212C8.08898 12.6212 7.42419 13.2859 7.42419 14.106C7.42419 14.926 8.08898 15.5908 8.90903 15.5908Z" fill="#231F20"/>
</svg>
