<svg width="35" height="35" viewBox="0 0 35 35" fill="none" xmlns="http://www.w3.org/2000/svg">
<path d="M17.5 18.9583C18.3054 18.9583 18.9584 18.3054 18.9584 17.5C18.9584 16.6946 18.3054 16.0417 17.5 16.0417C16.6946 16.0417 16.0417 16.6946 16.0417 17.5C16.0417 18.3054 16.6946 18.9583 17.5 18.9583Z" fill="white"/>
<path d="M23.3333 18.9583C24.1387 18.9583 24.7917 18.3054 24.7917 17.5C24.7917 16.6946 24.1387 16.0417 23.3333 16.0417C22.5279 16.0417 21.875 16.6946 21.875 17.5C21.875 18.3054 22.5279 18.9583 23.3333 18.9583Z" fill="white"/>
<path d="M11.6667 18.9583C12.4721 18.9583 13.125 18.3054 13.125 17.5C13.125 16.6946 12.4721 16.0417 11.6667 16.0417C10.8613 16.0417 10.2083 16.6946 10.2083 17.5C10.2083 18.3054 10.8613 18.9583 11.6667 18.9583Z" fill="white"/>
<path d="M27.8104 7.18958C25.4176 4.78114 22.2595 3.28301 18.8805 2.95347C15.5015 2.62393 12.1134 3.48363 9.30034 5.38435C6.48727 7.28507 4.4255 10.1077 3.47048 13.3656C2.51546 16.6236 2.72704 20.1126 4.06874 23.2312C4.20858 23.5211 4.25446 23.8474 4.19999 24.1646L2.91666 30.3333C2.86721 30.5698 2.87731 30.8149 2.94604 31.0466C3.01477 31.2782 3.13997 31.4891 3.31041 31.6604C3.45012 31.7991 3.61647 31.9081 3.79943 31.9808C3.9824 32.0535 4.17818 32.0883 4.37499 32.0833H4.66666L10.9083 30.8292C11.2256 30.791 11.5472 30.8363 11.8417 30.9604C14.9603 32.3021 18.4493 32.5137 21.7073 31.5587C24.9652 30.6036 27.7878 28.5419 29.6885 25.7288C31.5893 22.9157 32.449 19.5277 32.1194 16.1487C31.7899 12.7697 30.2918 9.61156 27.8833 7.21874L27.8104 7.18958ZM29.0208 19.3812C28.7357 21.1225 28.0593 22.7763 27.0427 24.2184C26.026 25.6604 24.6955 26.8531 23.1513 27.7067C21.607 28.5602 19.8893 29.0524 18.1274 29.1461C16.3655 29.2399 14.6052 28.9328 12.9792 28.2479C12.4024 28.0026 11.7829 27.8737 11.1562 27.8687C10.8825 27.8707 10.6093 27.895 10.3396 27.9417L6.22707 28.7729L7.05832 24.6604C7.22388 23.7698 7.11716 22.8499 6.75207 22.0208C6.06723 20.3947 5.76012 18.6345 5.85387 16.8726C5.94762 15.1107 6.43979 13.393 7.29332 11.8487C8.14686 10.3045 9.33953 8.97399 10.7816 7.95731C12.2236 6.94064 13.8775 6.26429 15.6187 5.97916C17.4464 5.6792 19.3193 5.8187 21.0824 6.38612C22.8454 6.95354 24.4481 7.93257 25.7577 9.24223C27.0674 10.5519 28.0464 12.1545 28.6139 13.9176C29.1813 15.6807 29.3208 17.5536 29.0208 19.3812Z" fill="white"/>
</svg>
