<svg width="15" height="15" viewBox="0 0 15 15" fill="none" xmlns="http://www.w3.org/2000/svg">
<path d="M7.5 6.875C8.01777 6.875 8.4375 6.45527 8.4375 5.9375C8.4375 5.41973 8.01777 5 7.5 5C6.98223 5 6.5625 5.41973 6.5625 5.9375C6.5625 6.45527 6.98223 6.875 7.5 6.875Z" fill="#231F20"/>
<path d="M7.5 1.25C6.18254 1.24993 4.91828 1.76985 3.98203 2.69674C3.04577 3.62364 2.51317 4.8826 2.5 6.2C2.5 9.625 6.90625 13.4375 7.09375 13.6C7.20696 13.6968 7.35103 13.75 7.5 13.75C7.64897 13.75 7.79304 13.6968 7.90625 13.6C8.125 13.4375 12.5 9.625 12.5 6.2C12.4868 4.8826 11.9542 3.62364 11.018 2.69674C10.0817 1.76985 8.81746 1.24993 7.5 1.25ZM7.5 8.125C7.06735 8.125 6.64442 7.99671 6.28469 7.75634C5.92496 7.51597 5.64458 7.17433 5.47901 6.77462C5.31345 6.37491 5.27013 5.93507 5.35453 5.51074C5.43894 5.08641 5.64728 4.69663 5.9532 4.3907C6.25913 4.08478 6.64891 3.87644 7.07324 3.79203C7.49757 3.70763 7.93741 3.75095 8.33712 3.91651C8.73683 4.08208 9.07847 4.36246 9.31884 4.72219C9.55921 5.08192 9.6875 5.50485 9.6875 5.9375C9.6875 6.51766 9.45703 7.07406 9.0468 7.4843C8.63656 7.89453 8.08016 8.125 7.5 8.125Z" fill="#231F20"/>
</svg>
