<svg width="21" height="21" viewBox="0 0 21 21" fill="none" xmlns="http://www.w3.org/2000/svg">
<path d="M16.6565 4.33336C16.6478 4.25681 16.631 4.18139 16.6065 4.10836V4.03336C16.5665 3.94062 16.51 3.85591 16.4398 3.78336C16.3691 3.71692 16.2873 3.66333 16.1981 3.62503H16.1231C16.0463 3.56637 15.9584 3.52385 15.8648 3.50003H15.8231C15.7403 3.48746 15.656 3.48746 15.5731 3.50003L0.573125 8.50003C0.406401 8.55483 0.261234 8.66086 0.15832 8.80302C0.0554066 8.94518 0 9.1162 0 9.2917C0 9.46719 0.0554066 9.63821 0.15832 9.78037C0.261234 9.92253 0.406401 10.0286 0.573125 10.0834L7.68146 12.45L10.0481 19.5584C10.1029 19.7251 10.209 19.8703 10.3511 19.9732C10.4933 20.0761 10.6643 20.1315 10.8398 20.1315C11.0153 20.1315 11.1863 20.0761 11.3285 19.9732C11.4706 19.8703 11.5767 19.7251 11.6315 19.5584L16.6315 4.55836C16.65 4.48485 16.6584 4.40915 16.6565 4.33336V4.33336ZM12.7398 6.2417L8.09812 10.8834L3.45646 9.33336L12.7398 6.2417ZM10.8231 16.7L9.27312 12.0584L13.9148 7.4167L10.8231 16.7Z" fill="#000000"/>
</svg>
