<svg width="35" height="35" viewBox="0 0 35 35" fill="none" xmlns="http://www.w3.org/2000/svg">
<path d="M17.5 16.0417C18.6537 16.0417 19.7816 15.6996 20.7408 15.0586C21.7001 14.4176 22.4478 13.5066 22.8893 12.4407C23.3308 11.3748 23.4463 10.2019 23.2213 9.07031C22.9962 7.93875 22.4406 6.89935 21.6248 6.08355C20.809 5.26774 19.7696 4.71217 18.638 4.48709C17.5065 4.26201 16.3336 4.37753 15.2677 4.81904C14.2018 5.26055 13.2908 6.00822 12.6498 6.96751C12.0088 7.9268 11.6667 9.05461 11.6667 10.2083C11.6667 11.7554 12.2813 13.2392 13.3752 14.3331C14.4692 15.4271 15.9529 16.0417 17.5 16.0417Z" fill="white"/>
<path d="M26.25 30.625C26.6368 30.625 27.0077 30.4714 27.2812 30.1979C27.5547 29.9244 27.7084 29.5535 27.7084 29.1667C27.7084 26.4593 26.6328 23.8627 24.7184 21.9483C22.804 20.0339 20.2074 18.9583 17.5 18.9583C14.7926 18.9583 12.1961 20.0339 10.2816 21.9483C8.3672 23.8627 7.29169 26.4593 7.29169 29.1667C7.29169 29.5535 7.44533 29.9244 7.71882 30.1979C7.99231 30.4714 8.36325 30.625 8.75002 30.625H26.25Z" fill="white"/>
</svg>
